<?xml version="1.0" standalone="no"?>
<!DOCTYPE svg PUBLIC "-//W3C//DTD SVG 20010904//EN"
 "http://www.w3.org/TR/2001/REC-SVG-20010904/DTD/svg10.dtd">
<svg version="1.0" xmlns="http://www.w3.org/2000/svg"
 width="2500.000000pt" height="2500.000000pt" viewBox="0 0 2500.000000 2500.000000"
 preserveAspectRatio="xMidYMid meet">
<metadata>
Created by potrace 1.14, written by Peter Selinger 2001-2017
</metadata>
<g transform="translate(0.000000,2500.000000) scale(0.100000,-0.100000)"
fill="#000000" stroke="none">
<path d="M8408 19756 c-1 -2 -50 -7 -108 -10 -187 -13 -278 -21 -345 -31 -16
-2 -57 -7 -90 -10 -69 -7 -313 -48 -475 -79 -148 -29 -477 -118 -665 -180
-812 -269 -1475 -665 -2009 -1200 -166 -166 -184 -186 -301 -328 -119 -143
-135 -164 -213 -274 -335 -471 -571 -1037 -677 -1619 -14 -73 -35 -208 -40
-250 -4 -27 -8 -61 -10 -75 -11 -70 -21 -177 -32 -330 -15 -213 -7 -829 12
-929 2 -12 7 -49 10 -82 4 -33 8 -70 11 -82 2 -12 6 -39 9 -62 5 -34 19 -109
41 -225 36 -186 141 -500 225 -677 21 -45 39 -84 39 -87 0 -3 35 -66 79 -140
176 -302 341 -504 635 -782 106 -100 332 -272 521 -396 221 -145 359 -223 665
-376 517 -258 927 -420 1660 -655 465 -149 640 -204 1215 -377 494 -149 760
-247 1064 -391 240 -115 367 -212 456 -349 67 -103 92 -180 101 -313 16 -224
-86 -408 -291 -523 -90 -50 -230 -91 -405 -119 -176 -27 -734 -27 -965 0 -16
2 -59 6 -95 10 -103 10 -192 23 -340 49 -82 15 -112 20 -175 32 -16 3 -68 15
-115 26 -47 11 -92 21 -101 23 -45 9 -201 52 -349 97 -809 243 -1530 546
-2300 965 -30 17 -147 86 -260 153 -113 68 -226 136 -253 151 l-47 29 -139
-283 c-349 -710 -418 -852 -566 -1152 -87 -176 -208 -423 -270 -550 -62 -126
-176 -359 -254 -517 -78 -159 -142 -291 -142 -295 -1 -5 -10 -20 -20 -35 -10
-14 -19 -29 -19 -32 0 -3 -58 -125 -130 -270 -71 -146 -131 -270 -132 -277 -2
-9 153 -109 169 -109 3 0 35 -18 73 -40 75 -44 445 -230 605 -305 480 -224
1087 -453 1670 -630 146 -44 450 -131 500 -143 22 -6 103 -26 180 -45 77 -19
154 -39 170 -43 17 -4 35 -8 40 -10 6 -1 21 -5 35 -7 14 -3 88 -20 165 -37
119 -26 210 -46 300 -63 46 -10 100 -21 105 -22 9 -2 105 -19 115 -20 6 -1 24
-4 40 -8 35 -8 51 -11 255 -43 85 -13 189 -29 230 -34 41 -5 86 -12 100 -15
14 -2 52 -7 85 -10 33 -3 74 -8 90 -10 98 -12 126 -15 180 -20 33 -3 78 -7
100 -10 22 -2 76 -7 120 -10 44 -4 100 -8 125 -10 350 -27 1075 -27 1375 0 22
2 76 7 120 10 44 3 89 8 100 10 11 2 50 7 87 10 37 3 77 8 90 10 27 4 97 13
152 20 39 5 79 11 126 20 14 2 43 7 65 10 22 3 74 12 115 20 41 8 86 17 100
19 14 2 36 7 50 10 14 3 36 8 50 10 14 3 34 7 45 10 11 2 83 18 160 36 626
142 1247 404 1756 741 157 104 228 158 388 294 208 178 448 438 581 630 106
153 230 350 230 364 0 5 3 11 8 13 11 5 135 251 185 369 94 220 194 551 233
769 2 14 7 36 10 50 7 31 9 41 28 165 49 322 61 506 61 910 0 272 -8 473 -20
555 -2 14 -6 55 -10 92 -3 37 -7 75 -9 85 -3 16 -16 101 -21 143 -7 47 -18
111 -27 150 -5 25 -12 59 -15 75 -10 62 -74 294 -111 405 -131 386 -322 716
-604 1044 -61 71 -291 302 -360 363 -159 138 -367 292 -548 405 -280 175 -712
393 -1115 562 -60 26 -119 51 -130 56 -35 16 -357 141 -420 162 -33 11 -73 26
-90 34 -16 7 -73 27 -125 44 -52 18 -104 36 -115 41 -11 4 -74 26 -140 47 -66
22 -158 52 -205 67 -47 15 -112 36 -145 45 -33 10 -103 32 -155 48 -52 17
-183 58 -290 92 -193 61 -523 163 -775 241 -335 104 -430 135 -570 186 -82 30
-219 89 -303 129 -351 170 -510 317 -581 535 -20 63 -23 82 -27 189 -11 313
142 515 471 623 93 30 184 54 240 62 22 4 47 8 55 10 45 12 210 20 400 20 226
-1 340 -7 510 -31 25 -3 61 -8 80 -10 19 -2 58 -9 85 -14 28 -5 66 -12 85 -15
19 -3 42 -8 50 -10 8 -2 26 -6 40 -8 251 -44 975 -276 1345 -432 17 -7 69 -29
118 -49 114 -47 174 -73 412 -183 183 -85 463 -226 544 -275 34 -21 65 -38 67
-38 2 0 88 -50 191 -111 103 -61 192 -111 196 -112 8 -2 48 71 211 383 44 85
99 191 122 235 23 44 67 127 97 185 62 121 164 316 229 440 58 109 174 333
251 480 32 63 83 160 112 215 29 55 85 163 125 240 77 149 136 262 230 440 32
61 89 171 128 245 38 74 95 184 126 243 l57 108 -208 100 c-195 95 -268 130
-403 191 -319 147 -593 267 -850 374 -58 25 -114 48 -125 53 -11 5 -56 23
-100 41 -44 17 -89 35 -100 40 -195 83 -776 280 -1090 370 -60 17 -139 40
-175 50 -115 34 -404 108 -485 124 -11 2 -54 12 -95 20 -72 16 -191 39 -255
51 -16 2 -41 7 -55 10 -22 4 -179 28 -265 40 -75 11 -195 25 -245 30 -30 3
-71 7 -90 10 -19 2 -84 7 -145 11 -60 3 -119 8 -130 11 -22 5 -821 13 -827 9z"/>
<path d="M16625 15641 c-2 -1 -21 -5 -42 -8 -32 -4 -113 -18 -223 -39 -67 -13
-246 -81 -343 -129 -297 -150 -527 -359 -700 -637 -37 -59 -67 -109 -67 -112
0 -2 -15 -37 -34 -78 -38 -82 -79 -195 -101 -278 -14 -54 -17 -68 -29 -140 -3
-19 -9 -48 -13 -65 -4 -16 -8 -461 -10 -987 l-4 -958 939 0 c880 0 946 1 1048
19 127 22 237 51 329 86 70 26 190 79 215 96 8 5 22 12 30 16 36 16 249 167
293 208 27 25 53 45 58 45 5 0 9 3 9 8 0 4 28 36 61 72 113 120 211 264 285
418 68 140 120 295 140 417 3 17 7 36 9 43 22 65 27 439 7 542 -7 36 -14 72
-16 80 -2 8 -6 33 -10 55 -8 41 -58 200 -77 245 -6 14 -17 39 -24 55 -107 248
-279 473 -505 659 -43 35 -195 134 -255 166 -33 18 -64 35 -70 38 -5 4 -14 7
-20 8 -5 2 -50 19 -99 39 -85 36 -284 91 -356 100 -19 2 -57 7 -85 11 -53 7
-334 11 -340 5z"/>
<path d="M19858 11875 c-2 -1 -39 -5 -83 -8 -476 -33 -927 -193 -1270 -450
-98 -73 -273 -249 -338 -337 -26 -36 -52 -70 -57 -77 -6 -7 -10 -15 -10 -17 0
-3 -16 -31 -36 -62 -104 -162 -196 -439 -221 -660 -10 -87 -10 -391 0 -464 12
-83 54 -243 82 -309 54 -130 132 -238 253 -352 203 -192 469 -326 1187 -600
184 -70 275 -102 543 -189 361 -118 472 -196 472 -335 0 -118 -70 -187 -221
-219 -63 -14 -329 -15 -409 -2 -19 3 -49 8 -67 11 -140 22 -414 101 -538 155
-22 10 -85 36 -139 59 -113 48 -306 143 -416 206 -41 23 -92 52 -112 63 -21
12 -88 53 -150 92 -62 38 -117 70 -122 71 -5 1 -41 -55 -79 -122 -38 -68 -80
-144 -94 -169 -14 -25 -43 -76 -64 -115 -21 -38 -123 -223 -227 -410 -104
-187 -188 -344 -185 -350 2 -5 29 -30 59 -55 31 -25 63 -52 72 -60 47 -43 257
-192 317 -226 11 -6 54 -31 95 -54 131 -76 488 -235 545 -244 5 -1 15 -4 20
-7 15 -10 199 -65 295 -89 47 -12 92 -24 100 -26 8 -2 80 -17 160 -33 142 -29
168 -33 280 -46 30 -4 66 -9 80 -11 164 -26 693 -25 900 1 589 76 1048 296
1358 651 55 62 162 222 197 294 122 250 170 474 170 795 0 196 -8 273 -41 403
-61 245 -170 413 -389 607 -96 85 -325 215 -575 328 -150 67 -541 206 -825
292 -440 134 -581 186 -670 246 -85 57 -121 130 -112 229 6 77 38 132 101 174
77 52 141 67 296 71 280 6 574 -77 960 -271 174 -88 248 -129 403 -222 l117
-71 23 37 c94 149 435 698 456 734 9 15 67 109 129 209 108 174 112 182 93
196 -11 7 -26 19 -33 26 -32 31 -193 151 -288 214 -258 172 -511 288 -810 372
-95 26 -331 78 -390 85 -25 3 -55 8 -67 10 -12 3 -53 8 -90 12 -37 3 -79 8
-93 11 -29 5 -537 13 -542 8z"/>
<path d="M15057 9073 c-1 -1484 -6 -2711 -10 -2728 -14 -52 -65 -149 -98 -183
-128 -135 -363 -148 -594 -33 -44 22 -100 59 -124 81 l-44 40 -42 -73 c-23
-39 -120 -200 -215 -357 -95 -157 -182 -301 -194 -321 -124 -210 -262 -435
-268 -437 -5 -2 -8 -8 -8 -13 0 -5 -12 -28 -26 -50 -14 -23 -24 -42 -22 -44
323 -265 732 -446 1156 -510 23 -4 54 -9 70 -11 52 -9 427 -11 500 -3 133 15
194 25 317 56 335 83 637 257 885 511 58 59 112 116 120 127 119 157 152 207
216 320 21 39 39 72 40 75 0 3 17 39 36 80 87 187 160 445 183 650 5 36 10 76
13 90 3 14 7 1241 9 2728 l4 2702 -951 0 -950 0 -3 -2697z"/>
</g>
</svg>
